<svg xmlns="http://www.w3.org/2000/svg" width="700" height="400" viewBox="0 0 700 400"><rect width="100%" height="100%" fill="#DDDDDD"/><path fill="#999999" d="M166.01 222.755h-22.74v-59.01h19.94q10.42 0 16.25 4.05 5.84 4.06 5.84 12.12 0 4.1-2.17 7.32-2.17 3.22-6.3 4.84 5.31 1.14 7.96 4.86 2.66 3.73 2.66 8.64 0 8.47-5.6 12.82-5.59 4.36-15.84 4.36Zm.89-26.1h-11.8v17.02h10.91q4.7 0 7.17-2.04 2.47-2.05 2.47-6.06 0-4.34-2.11-6.63-2.1-2.29-6.64-2.29Zm-11.8-23.79v15.6h8.52q4.74 0 7.29-1.94 2.55-1.95 2.55-5.68 0-4.09-2.57-6.03-2.57-1.95-7.68-1.95h-8.11Zm52.89-13.33v63.22h-11.83v-63.22h11.83Zm7.91 41.74v-.85q0-9.81 5.47-16.07t15.15-6.26q9.73 0 15.24 6.24t5.51 16.09v.85q0 9.89-5.49 16.11-5.49 6.22-15.17 6.22-9.73 0-15.22-6.22t-5.49-16.11Zm11.79-.85v.85q0 6 2.11 9.63 2.1 3.62 6.81 3.62 4.57 0 6.7-3.64 2.13-3.65 2.13-9.61v-.85q0-5.84-2.15-9.52-2.15-3.69-6.77-3.69-4.58 0-6.7 3.71-2.13 3.7-2.13 9.5Zm35.06 1.62v-.85q0-10.38 4.51-16.74 4.52-6.36 12.67-6.36 3.69 0 6.48 1.66 2.8 1.66 4.79 4.74l.93-5.59h10.21v43.65q0 8.55-5.61 13.23-5.62 4.68-15.63 4.68-3.32 0-7.05-.91t-6.89-2.49l2.19-8.84q2.72 1.3 5.53 1.97 2.82.67 6.14.67 4.87 0 7.16-2.03t2.29-6.32v-3.97q-1.95 2.47-4.58 3.76-2.64 1.3-6.04 1.3-8.07 0-12.59-5.94-4.51-5.93-4.51-15.62Zm11.83-.85v.85q0 5.76 1.94 9.06 1.95 3.3 6.33 3.3 2.71 0 4.6-.99 1.88-.99 3.02-2.9v-19.05q-1.14-1.98-3.02-3.08-1.89-1.09-4.52-1.09-4.34 0-6.34 3.85-2.01 3.85-2.01 10.05Zm71.04-37.45v59.01h-11.83v-59.01h11.83Zm10.82 15.16h10.99l.48 5.79q2.11-3.16 5.29-4.88 3.18-1.72 7.36-1.72 4.21 0 7.21 1.86 3 1.87 4.54 5.64 2.03-3.53 5.27-5.52 3.24-1.98 7.62-1.98 6.48 0 10.23 4.48t3.75 13.63v26.55h-11.83v-26.59q0-4.98-1.62-6.93-1.63-1.94-4.83-1.94-2.51 0-4.35 1.11-1.85 1.12-2.94 3.1 0 .77.04 1.32t.04 1.12v28.81H381.9v-26.59q0-4.86-1.63-6.87-1.62-2-4.86-2-2.39 0-4.19.91-1.81.91-2.98 2.57v31.98h-11.8v-43.85Zm109.39 43.85h-11.84q-.64-1.5-1.11-3.16-.47-1.66-.67-3.41-1.82 3.21-4.8 5.31-2.98 2.11-7.11 2.11-6.89 0-10.62-3.55-3.73-3.54-3.73-9.66 0-6.44 4.96-9.99 4.97-3.55 14.49-3.55h6.61v-3.48q0-3.16-1.66-4.91-1.67-1.74-4.91-1.74-2.87 0-4.44 1.4-1.56 1.4-1.56 3.87l-11.42-.04-.04-.24q-.29-5.56 4.82-9.59 5.1-4.03 13.41-4.03 7.86 0 12.77 3.99 4.9 3.99 4.9 11.37v18.11q0 3.08.47 5.8.46 2.72 1.48 5.39Zm-22.66-7.9q3.12 0 5.56-1.54 2.43-1.54 3.28-3.57v-6.2h-6.61q-3.77 0-5.71 1.88-1.95 1.89-1.95 4.56 0 2.19 1.46 3.53 1.46 1.34 3.97 1.34Zm27.85-12.81v-.85q0-10.38 4.51-16.74 4.52-6.36 12.67-6.36 3.69 0 6.48 1.66 2.8 1.66 4.79 4.74l.93-5.59h10.21v43.65q0 8.55-5.61 13.23-5.62 4.68-15.63 4.68-3.32 0-7.05-.91t-6.89-2.49l2.19-8.84q2.72 1.3 5.53 1.97 2.82.67 6.14.67 4.87 0 7.16-2.03t2.29-6.32v-3.97q-1.95 2.47-4.58 3.76-2.64 1.3-6.04 1.3-8.07 0-12.59-5.94-4.51-5.93-4.51-15.62Zm11.83-.85v.85q0 5.76 1.94 9.06 1.95 3.3 6.33 3.3 2.71 0 4.6-.99 1.88-.99 3.02-2.9v-19.05q-1.14-1.98-3.02-3.08-1.89-1.09-4.52-1.09-4.34 0-6.34 3.85-2.01 3.85-2.01 10.05Zm56.25 22.41q-9.48 0-15.16-6.08-5.67-6.08-5.67-15.44v-1.62q0-9.77 5.37-16.09t14.41-6.28q8.87 0 13.78 5.35 4.9 5.35 4.9 14.47v6.44h-26.18l-.08.24q.32 4.34 2.9 7.14 2.57 2.79 6.99 2.79 3.93 0 6.52-.79 2.6-.79 5.68-2.49l3.2 7.3q-2.68 2.18-7.01 3.62-4.34 1.44-9.65 1.44Zm-1.05-36.39q-3.29 0-5.19 2.51-1.9 2.51-2.35 6.61l.12.2h14.51v-1.05q0-3.77-1.76-6.02-1.77-2.25-5.33-2.25Z"/></svg>